<?xml version="1.0" encoding="UTF-8"?>
<svg id="Capa_1" data-name="Capa 1" xmlns="http://www.w3.org/2000/svg" viewBox="0 0 100 100">
  <defs>
    <style>
      .cls-1 {
        fill: #939393;
      }

      .cls-2 {
        fill: #fff;
      }

      .cls-3 {
        fill: #d1d1d1;
      }

      .cls-4 {
        fill: #c43737;
      }

      .cls-5 {
        fill: #141823;
      }

      .cls-6 {
        fill: #009fe3;
      }

      .cls-7 {
        fill: #2b2928;
      }
    </style>
  </defs>
  <path class="cls-6" d="m99.05,50c0,27.09-21.96,49.05-49.05,49.05-27.09,0-49.05-21.96-49.05-49.05S22.91.95,50,.95c27.09,0,49.05,21.96,49.05,49.05Z"/>
  <path class="cls-5" d="m99.05,50c0-.34-.02-.68-.02-1.02l-27.85-27.85-42.35,57.74,20.15,20.15c.34,0,.68.03,1.03.03,27.09,0,49.05-21.96,49.05-49.05Z"/>
  <polygon class="cls-2" points="33.81 55.47 33.81 54.1 50 54.1 50 50.94 33.81 50.94 33.81 49.57 50 49.57 50 46.41 33.81 46.41 33.81 45.04 50 45.04 50 41.88 33.81 41.88 33.81 40.52 50 40.52 50 37.36 33.81 37.36 33.81 35.99 50 35.99 50 21.13 28.82 21.13 28.82 78.87 50 78.87 50 55.47 33.81 55.47"/>
  <polygon class="cls-3" points="71.18 21.13 50 21.13 50 35.99 66.19 35.99 66.19 37.36 50 37.36 50 40.52 66.19 40.52 66.19 41.88 50 41.88 50 45.04 66.19 45.04 66.19 46.41 50 46.41 50 49.57 66.19 49.57 66.19 50.94 50 50.94 50 54.1 66.19 54.1 66.19 55.47 50 55.47 50 78.87 71.18 78.87 71.18 21.13"/>
  <path class="cls-4" d="m40.3,63.16c-3.58,0-6.49,2.9-6.49,6.49s2.91,6.49,6.49,6.49c3.58,0,6.48-2.9,6.48-6.49,0-3.58-2.9-6.49-6.48-6.49Zm0,12.07c-3.09,0-5.59-2.5-5.59-5.59s2.5-5.59,5.59-5.59,5.58,2.5,5.58,5.59-2.5,5.59-5.58,5.59Z"/>
  <path class="cls-4" d="m40.3,65.02c-2.56,0-4.63,2.07-4.63,4.63s2.07,4.63,4.63,4.63c2.55,0,4.63-2.07,4.63-4.63s-2.07-4.63-4.63-4.63Z"/>
  <polygon class="cls-7" points="66.19 73.17 50.91 73.17 50.91 71.8 66.19 71.8 66.19 73.17"/>
  <rect class="cls-1" x="33.81" y="54.1" width="16.19" height="1.37"/>
  <rect class="cls-7" x="50" y="54.1" width="16.19" height="1.37" transform="translate(-.09 .1) rotate(-.1)"/>
  <rect class="cls-1" x="33.81" y="49.57" width="16.19" height="1.37"/>
  <rect class="cls-7" x="57.41" y="42.16" width="1.37" height="16.19" transform="translate(7.74 108.27) rotate(-89.9)"/>
  <rect class="cls-1" x="33.81" y="45.04" width="16.19" height="1.37"/>
  <rect class="cls-7" x="50" y="45.04" width="16.19" height="1.37"/>
  <rect class="cls-1" x="33.81" y="40.52" width="16.19" height="1.37"/>
  <polygon class="cls-7" points="66.19 41.88 66.19 40.52 50 40.52 50 41.88 66.19 41.88"/>
  <rect class="cls-1" x="33.81" y="35.99" width="16.19" height="1.37"/>
  <rect class="cls-7" x="50" y="35.99" width="16.19" height="1.37"/>
  <path class="cls-7" d="m66.19,28.98c0,.76-.62,1.38-1.38,1.38h-10.91c-.76,0-1.38-.62-1.38-1.38s.62-1.38,1.38-1.38h10.91c.76,0,1.38.62,1.38,1.38Z"/>
</svg>