<?xml version="1.0" encoding="UTF-8"?>
<svg id="Capa_1" data-name="Capa 1" xmlns="http://www.w3.org/2000/svg" viewBox="0 0 500 500">
  <defs>
    <style>
      .cls-1 {
        fill: #013a71;
      }
    </style>
  </defs>
  <path class="cls-1" d="m407.61,359.09c2.84,3.87,3.35,8.51,3.87,13.15,1.03,9.54-1.55,17.79-9.02,23.72-3.35,2.58-6.96,3.61-11.09,4.12-3.87.52-7.48-.26-11.09-1.55-1.8-.52-2.06-.26-2.32,1.55-.52,12.89-3.61,25.27-9.02,37.12-5.16,11.34-12.63,21.14-22.17,29.13-16.24,13.92-35.32,20.62-56.2,22.95-13.66,1.55-27.33.52-40.73-2.32-12.37-2.32-23.98-6.96-35.06-12.63-5.16-2.58-10.31-5.41-14.44-9.54,5.16,1.8,10.05,3.61,15.47,4.38,3.61.52,7.22.77,10.83.77,4.64.26,9.02.26,13.41-.52,17.53-3.09,31.97-11.6,42.8-25.78,6.7-9.02,11.34-19.08,12.37-30.42,1.29-12.12-1.03-23.72-7.22-34.03-3.09-5.16-6.7-10.31-11.09-14.95-3.61-3.87-6.96-7.99-11.09-11.6-10.83-10.31-22.69-19.34-34.29-28.36-10.57-8.25-21.14-16.5-31.2-25.52-5.93-5.41-11.6-11.34-17.02-17.53-7.48-8.51-13.66-17.79-18.82-27.84-.26-.26-.52-.77-1.03-1.55-.26,1.55-.52,3.09-1.03,4.64-.77,3.61-1.55,6.96-1.29,10.31v7.73c1.03,11.86,5.67,21.91,12.89,31.45,7.73,10.31,17.27,17.79,28.36,23.98,5.41,3.09,11.34,5.67,17.27,7.48,5.93,1.8,11.86,3.87,18.3,4.12-3.61,5.16-14.18,10.05-35.06,11.34.26,2.06,1.8,3.35,2.58,4.9,9.02,15.98,13.15,32.74,4.64,50.53-3.61,7.99-9.8,13.92-17.02,18.82-7.73,5.41-16.5,7.73-25.52,9.28-10.05,1.55-19.85,0-29.39-3.35-3.87-1.29-7.48-3.35-11.09-5.41-6.7-3.87-12.12-9.28-16.76-15.47-6.96-9.02-11.09-19.59-13.92-31.71,4.9,6.7,11.09,9.8,18.05,10.57,6.45.77,12.63.26,18.3-2.58,7.48-3.61,12.37-11.6,9.28-22.17-2.32-7.73-5.93-14.7-9.54-21.91-5.67-11.6-11.6-22.95-15.98-35.06-3.35-9.02-6.45-18.05-8.51-27.59-2.06-8.51-3.35-17.27-3.35-25.78,0-13.66,2.84-26.81,10.83-38.41,2.58-3.87,5.67-7.22,9.02-10.31,2.06-1.8,1.29-2.32-.52-3.35-4.12-2.32-7.22-5.93-10.83-8.77-1.55-1.03-2.84-4.38-4.12-6.7-2.84-4.9-4.38-10.57-6.19-15.98-.26-1.03-.26-2.32,0-3.61,0-.77.26-1.8.26-2.58-.52-13.66,4.9-25.01,14.18-34.55l.26-.26c.26-.52.77-.77,1.55-.52.52,5.41,1.8,10.31,5.16,14.95,6.19,8.25,20.62,9.02,27.33,1.03,1.55-1.8,3.35-3.35,4.38-5.41,4.64-9.02,5.67-18.56,4.64-28.36-.26-3.09-.77-6.19-1.03-9.02,51.3-14.44,102.87-15.47,154.69-3.35v-1.03c-4.64-1.55-9.54-3.35-14.18-4.9-7.73-2.32-15.47-4.38-23.46-5.67-15.98-2.84-32.23-3.61-48.73-2.84-7.99.26-15.73.77-23.46,2.06-4.64.77-9.54,1.55-14.18,2.06-6.45.77-12.89,2.06-19.34,3.09-2.58.52-5.41.77-7.99,2.06-3.35,1.8-6.19,0-7.48-3.87-2.32-5.93-4.9-11.6-6.96-17.53-2.32-6.96-5.16-13.66-7.48-20.62-3.35-9.02-6.7-18.05-10.05-26.81-.77-2.06-.26-2.58,1.55-2.06,10.05,1.8,18.56,5.93,25.52,13.41,1.03,1.03,1.03,2.32.77,3.61-1.03,5.16-1.29,10.57-.52,15.98,1.03,5.67,4.38,10.05,9.02,13.41,5.67,3.87,12.12,5.41,18.56,6.19,8.51,1.03,17.02.52,25.27-1.55,5.16-1.29,10.57-2.84,15.47-5.67,4.12-2.32,8.25-4.12,11.6-7.48,3.35-3.09,5.67-6.7,6.19-11.6.52-7.22-3.09-12.12-8.77-15.98-.26-.26-.52-.26-.52-.52q-3.61-2.58-1.03-6.45c2.32-3.87,5.16-7.48,8.25-10.83,1.55-1.55,2.84-3.09,4.64-4.38l.26-.26q4.9-3.61,9.54,1.03c1.8,1.8,4.64,3.35,5.93,5.41,2.84,4.12,6.45,7.99,8.25,12.89.52,1.29-.52,1.55-1.29,1.8-.26,0-.52.26-.52.26-4.9,2.32-8.51,5.67-9.8,11.09-.77,4.12.26,7.99,1.55,11.86,2.58,6.96,7.48,12.37,13.66,15.98,2.06,1.29,3.61,3.09,5.93,3.87,2.58,1.03,5.16,2.32,7.99,3.35,2.84,1.03,5.67,1.55,8.51,2.32,2.84.52,5.67,1.29,8.51,1.55,11.09.52,21.66-.52,31.2-7.48,8.25-5.93,14.44-18.3,9.02-29.13-.77-1.55,0-1.8.77-2.32.26,0,.52-.26.77-.52,4.12-3.09,8.77-5.67,13.66-7.73,4.64-1.8,9.54-3.09,14.7-3.35,2.06,0,2.32.26,1.29,2.32-7.22,12.12-14.18,24.49-21.4,36.61-4.64,7.99-9.28,15.98-14.44,23.72-2.58,3.61-4.12,7.73-4.38,12.12-.77,6.7,2.32,12.12,7.99,14.95,3.61,1.8,9.02.26,11.86-3.35,1.55-2.32,3.09-4.64,4.9-7.73,1.29,4.38,1.29,8.25,1.03,12.12-.26,4.38-1.29,8.25-4.38,11.6s-6.96,5.16-11.34,5.67c0,1.55,1.03,1.8,1.8,2.32,5.93,4.12,7.48,9.8,6.19,16.5-.26,1.29-.52,2.58,1.03,2.84,3.09.77,5.67,3.09,8.51,4.38,1.29.52,2.58,1.29,12.37,8.51,4.64,3.35,5.16,3.61,12.37,9.02,6.19,4.64,11.6,10.05,17.53,14.95,2.84,2.32,3.09,5.41,2.06,8.51-.52,1.55-1.03,3.09-1.8,4.64-1.55,4.12-3.09,8.25-2.58,12.63.52,3.09.26,6.7,0,9.54-.77,5.67,0,11.09-1.55,16.5,0,.52,0,1.03-.26,1.29-5.16,7.48-4.38,16.24-5.16,24.49-1.8,14.44-10.05,23.98-22.69,31.2,1.03-3.09,2.06-5.67,2.84-7.99v-.26c.26-.77.52-1.55,0-2.32-.52-.52-1.03,0-1.55.26-.26,0-.26.26-.52.26-2.58,1.03-5.41,2.32-7.73,2.06-2.84,0-6.19-.26-9.28-1.29h-1.55c1.8,3.09,3.35,5.67,4.9,8.25,5.41,9.02,9.54,18.3,13.92,27.84,4.12,8.77,7.99,17.79,12.89,26.3.77,1.29,1.55,2.58,2.58,3.61,5.16,5.67,12.89,3.35,15.73-2.84.26-.77.77-2.06.77-3.61h0Zm-182.01-225.07c-.52-1.03-.77-1.29-1.03-1.55-4.64-4.9-10.05-7.73-16.76-8.51-7.99-1.03-14.95,1.03-20.88,6.19-3.35,2.84-4.9,6.7-6.19,11.09-1.8,6.7-1.29,12.89,1.29,19.08,2.32,5.41,6.96,8.77,11.86,11.34,3.09,1.55,6.45,2.84,9.8,3.61h.26c.77.26,1.8.52,1.55,2.06-.52,3.09-.77,6.19-1.29,9.02-1.55,7.22-1.29,14.7-.52,21.66,2.06,18.56,11.6,33.26,25.52,45.12,13.15,11.09,27.33,20.88,40.99,31.2,7.48,5.67,14.95,11.6,22.43,17.27,5.41,4.12,10.83,8.25,15.73,12.89,5.16,4.64,10.05,9.8,14.95,14.95,2.84,2.84,5.16,6.19,7.99,9.02,1.8,1.8,3.35,4.9,5.16,7.22,14.18,20.37,21.91,42.8,20.37,68.06-.26,5.67-.77,11.34-1.8,17.02,1.8-3.09,2.58-6.45,3.61-9.8,5.93-18.05,9.02-36.35,7.99-55.43-.77-12.63-4.12-24.75-9.28-36.09-6.96-15.73-18.05-28.36-30.16-39.96-10.57-10.05-22.43-18.05-34.55-25.78-7.73-5.16-15.47-10.05-22.95-15.21-2.84-1.8-5.41-3.87-7.99-6.19-2.58-2.06-5.41-4.12-7.73-6.7-2.06-2.06-4.38-4.12-5.93-6.7-6.19-9.54-8.25-19.59-5.41-30.68,2.58-9.8,7.99-18.05,16.24-23.98,4.12-2.84,8.51-4.12,12.89-5.67.77-.26,1.55,0,2.06.52-2.06,2.84-3.87,5.93-6.19,8.25-5.41,5.93-7.22,16.76-4.12,23.98,1.8,4.38,5.16,7.22,8.25,10.57,3.61,3.87,8.51,6.45,12.89,9.02,9.54,5.67,19.34,10.57,29.13,15.98,3.35,1.8,6.7,3.09,10.31,2.32,3.61-1.03,6.96-2.84,10.83-3.35.52,0,1.29-.26,1.8-.26,1.8-.26,3.35-.52,5.16-.26-3.09,1.55-5.67,3.87-8.25,5.93-7.73,6.19-10.05,18.56-5.67,26.55,3.87,6.96,10.05,10.83,16.76,13.92.26.26.52.26,1.03.52,5.16,2.32,10.57,4.9,16.76,3.87,1.55,1.55,3.35,1.55,5.16,1.55,1.03,0,2.06,0,3.09.26,2.06.52,4.38,0,6.45-1.03,3.09-1.29,5.67-3.61,8.25-5.67.52,1.03.52,1.8.52,2.84v1.29c.26,1.29.26,2.32,1.03,3.61,3.61-6.96,4.64-13.92,2.32-19.59,0-.26,0-.77.26-.77,1.29-.52,1.03-1.55.77-2.32v-.52c-.77-3.87-1.55-7.73-2.58-11.34-.77-3.09-2.32-3.61-4.9-1.8-5.93,3.87-12.12,7.48-18.82,10.31-6.19,2.58-12.12,5.41-18.56,6.96-5.93,1.55-10.05-.77-11.34-6.45-1.29-5.67,2.58-11.6,7.99-11.6,9.02-.26,18.05,0,26.81-.52,5.16-.26,9.8-2.06,14.18-5.41,3.87-3.09,5.67-6.96,6.19-11.34.26-1.03.26-1.8.52-2.84.52-2.84,1.03-5.67.77-8.51-.26-2.32-1.55-3.87-3.35-4.12-1.8-.26-3.09-1.03-4.64-1.55-1.8-.52-3.61-1.29-5.41-1.8-2.58-1.03-2.84-2.84-1.8-4.9,1.55-3.35,4.38-5.67,7.48-7.99,1.03-.77,2.32-1.55,3.61-1.55,1.8.26,3.35,0,5.16,0,2.06-.26,4.38-.26,6.45.26.77.26,1.8.26,2.32-.77-21.4-18.56-46.15-31.45-72.19-44.34,2.32-.26,3.87-.26,5.16-.26,3.87-.26,5.41-2.84,3.09-6.19-2.06-3.09-4.9-5.16-7.99-6.96-6.7-4.64-14.7-6.45-22.69-7.73-4.64-.77-9.02-1.03-14.18-1.03,4.38,4.12,7.99,7.99,9.54,14.18-18.3-11.09-37.38-12.89-57.23-8.51,11.86.52,22.95,2.32,31.2,12.89-12.89,0-23.98,2.58-33.52,10.57-4.12,3.61-7.99,7.22-10.83,12.12-4.38,7.48-6.7,15.47-7.48,23.98-.77,7.99.77,15.98,2.58,23.72.52,2.06,1.55,3.87,1.8,6.7-1.55-1.8-2.58-3.09-3.61-4.64-5.67-9.28-7.99-19.34-7.22-30.16.77-10.57,3.09-20.62,9.02-29.39,0-.26.26-.26.26-.52.52-.52.77-1.03.52-1.55-.52-.77-1.29-.52-1.8-.52h-.52c-4.38,1.03-8.77.77-13.41.52h0c-6.19-.26-11.6-2.58-15.21-7.48-2.84-3.87-3.87-8.25-2.58-12.89,2.58-8.25,11.09-11.6,18.05-11.6,5.67-.26,9.8.52,14.44,2.32h0Zm120.14,56.98c-5.67-1.8-10.05-4.38-14.7-5.67-3.35-.77-6.45-.77-9.54.77-3.35,1.55-6.96,1.03-10.57-.26-.52-.26-1.03-.26-1.29-.52-2.84-1.03-5.67-2.06-9.54-1.8,6.19-6.96,12.89-12.37,21.4-14.95h.26q4.9-1.55,7.48,3.35c1.29,2.58,2.32,5.16,2.58,7.99.26,2.58,3.09,2.84,4.38,4.38,2.58,2.32,5.93,4.12,9.54,6.7h0Zm-21.14-15.47v-1.29c0-.77,0-1.55-.77-1.8-1.03,0-1.29,1.03-1.55,1.8v.52c-1.29,4.38-3.09,4.9-6.7,2.06-1.03-.77-1.8-.26-2.32.26-.26.26-.52.26-.52.52-1.29.77-.52,1.8.26,2.32,1.55,1.29,3.09,1.55,5.16,1.29,3.61,0,6.7-2.06,6.45-5.67h0Zm-204.96,31.97c-.52,2.32-2.32,2.84-3.35,3.87-3.35,3.61-6.7,7.48-9.54,11.86-4.64,6.45-6.96,13.41-7.99,20.88-1.29,7.22-1.29,14.7-.26,22.17,1.8,12.89,4.64,22.69,7.73,31.45.52,1.29,2.58,7.22,5.67,14.7,2.06,4.9,3.87,8.51,5.67,11.86,6.19,12.63,9.28,18.82,10.57,21.14.77,1.29,2.58,4.64,2.32,4.9-.26,0-.77-.26-1.03-.52-8.25-7.22-13.15-16.76-13.15-16.76-5.67-7.99-10.57-16.76-14.95-25.27-2.32-4.12-3.61-8.51-5.41-12.63-2.06-4.64-3.35-9.54-4.64-14.44-1.8-7.48-4.12-17.53-2.32-30.16.52-3.35,1.03-7.48,3.09-12.89,5.67-14.7,16.76-22.69,20.11-25.27,1.8-1.8,4.38-3.09,7.48-4.9h0Zm84.3,132.26c-2.06-.52-4.12-1.03-6.19-1.8-12.37-3.87-23.2-9.8-30.94-20.37-2.32-2.84-4.38-5.93-5.93-9.02-7.48-14.18-10.05-29.39-10.05-45.12v-1.03c0-1.03,0-2.32-.52-3.35-1.55,5.16-1.8,10.31-2.32,15.47-1.03,8.25-.52,16.76,1.29,25.01,1.55,7.22,4.12,13.92,7.48,20.37,2.58,5.41,5.41,10.83,8.51,15.98,2.32,3.87,5.41,7.73,7.73,11.6,3.09,4.64,5.93,9.54,8.25,14.95,4.12,9.28,7.48,18.3,6.96,28.87-.52,11.6-5.67,20.37-15.73,26.04-2.32,1.29-4.64,2.32-6.96,3.35,7.48-.26,14.18-2.84,20.11-7.22,8.77-6.7,12.37-15.98,12.89-26.55.52-11.6-3.09-22.17-8.77-31.97-2.58-4.64-5.93-8.77-9.54-12.89,12.63,2.06,18.3.26,23.72-2.32Zm102.09,122.72c6.19-4.12,10.31-9.8,14.7-15.73,5.67-7.99,8.77-17.02,10.57-26.55.52-2.32.77-4.64,1.03-6.7v-2.32c0-1.03-.26-2.32,0-3.35.52-2.32.26-4.9,0-7.22v-.77c-.26-2.32-.52-4.9-1.03-7.22-.77-5.67-2.32-11.09-4.12-16.24-3.61-10.57-9.02-20.37-15.98-29.39-5.67-7.48-12.12-14.18-19.08-20.37-8.77-7.99-18.3-14.95-27.84-21.91-11.86-8.51-23.98-16.5-35.58-25.27-3.87-3.09-7.99-6.19-11.86-9.28-3.35-2.84-6.7-5.67-10.83-9.02,2.84,6.7,7.22,11.34,11.34,15.98,5.67,6.19,11.86,12.12,18.3,17.53,9.54,7.99,18.56,16.5,28.36,24.49,5.41,4.38,10.31,9.28,15.21,14.44,4.64,4.64,9.28,9.28,13.41,14.18,11.09,13.15,20.11,27.33,25.27,44.09,2.32,6.96,4.38,14.18,4.38,21.4v1.55c0,5.41.26,11.09-1.29,16.5-1.55,5.67-2.84,11.09-5.41,16.24-2.84,5.16-5.67,10.31-9.54,14.95h0Zm-111.63-10.57h5.93c3.61,0,7.48.26,11.09,0,21.66-1.8,40.73-8.77,54.4-27.07,2.06-2.84,4.9-7.22,6.7-13.66,1.8-6.45,1.29-12.12.77-22.69,0-1.55,0-2.84-.52-4.12-3.09-10.05-7.99-18.82-14.7-26.55-.26-.26-.52-.52-.77-1.03-.77-1.03-1.55-2.06-2.32-3.35,6.7,4.9,12.12,10.57,17.02,17.02,6.19,7.99,10.83,17.02,12.37,26.55,2.06,12.89-.26,25.27-7.48,36.61-10.05,15.21-24.23,23.72-42.02,26.3-4.9.77-9.8.52-14.7,0h0c-9.54-.52-17.79-3.87-25.78-7.99h0Zm-72.44-46.41c11.34,12.37,30.68,14.7,43.31,3.35,11.09-9.8,11.86-26.81,3.35-38.67,1.29,3.35,1.55,6.7,2.06,10.05.52,5.16-.26,10.05-2.58,14.7-5.93,11.86-19.85,16.24-32.48,14.44-4.64-1.03-9.28-2.58-13.66-3.87h0Z"/>
</svg>