<?xml version="1.0" encoding="utf-8"?>
<!-- Generator: Adobe Illustrator 27.2.0, SVG Export Plug-In . SVG Version: 6.00 Build 0)  -->
<svg version="1.1" id="Capa_1" xmlns="http://www.w3.org/2000/svg" xmlns:xlink="http://www.w3.org/1999/xlink" x="0px" y="0px"
	 viewBox="0 0 500 500" style="enable-background:new 0 0 500 500;" xml:space="preserve">
<style type="text/css">
	.st0{fill:#013A71;}
	.st1{fill:none;stroke:#000000;stroke-width:0.25;stroke-miterlimit:10;}
</style>
<g>
	<path class="st0" d="M106.4,336.2v26.9c0,3.5-0.6,6.6-1.9,9.3c-1.2,2.7-3,4.9-5.3,6.4c-2.3,1.6-5.1,2.3-8.3,2.3
		c-2.8,0-12.1-1.4-12.1-18.9v-26.1h-9.3v28.1c0,3.8,0.8,7.5,2.4,10.8c1.6,3.3,4,6,7.1,8.1c3.1,2,6.8,3,11.1,3
		c7.1,0,12.3-2.4,15.5-7.1c3.2-4.7,4.8-10.6,4.8-17.6v-25.3L106.4,336.2z M53.7,336.2v29.6c0,4.7-1,8.7-3.1,12
		c-2,3.3-5.4,4.8-10.3,4.8c-3.5,0-6.6-0.7-9.1-2.1c-1.1-0.6-2.1-1.3-3.1-2.2l-0.5-0.5L25,381l0.4,0.4c3.4,3.4,8.7,5.1,15.6,5.1
		c4.6,0,8.5-0.9,11.8-2.6c3.3-1.7,5.8-4.1,7.5-6.9c1.7-2.9,2.5-6,2.5-9.2v-31.6H53.7z M184.8,376.3l-0.6,1.1
		c-0.7,1.1-1.8,2.2-3.4,3.2c-1.6,1-7.4,3.9-16,1.1c-4.3-1.4-8-3.4-11.6-5.3c-2.3-1.2-4.5-2.4-6.7-3.4c0.3,0,0.7-0.1,0.9-0.1l0.3-0.1
		c0.3-0.1,0.7-0.1,1-0.2c1.7-0.4,3.3-1.1,4.8-2c2.8-1.7,5-3.9,6.6-6.7c1.6-2.8,2.4-5.9,2.4-9.2c0-4.1-1.2-7.8-3.7-11.1
		c-1-1.4-2.2-2.6-3.6-3.6c-3.3-2.5-7.1-3.7-11.2-3.7h-26.5V386h9.3v-13l1.7,0c5.2,0.5,8.8,2.6,13.9,5.6c1.2,0.7,2.4,1.4,3.8,2.2
		c0.5,0.3,1.1,0.7,1.9,1.1c3.3,2,8.2,5,14.1,6.7c2.1,0.6,4.2,0.8,6.3,0.8c4.5,0,8.4-1.2,10-2c6.7-3.5,6.7-11,6.7-11L184.8,376.3z
		 M145.9,367.3c-0.7,0.4-1.5,0.8-2.5,1.2c-1.6,0.6-3.2,0.9-4.8,1h-11.8v-29.8h11c3.2,0,6,0.7,8.3,2c2.3,1.3,4,3.1,5.2,5.3
		c1.2,2.2,1.8,4.8,1.8,7.6c0,2.6-0.7,5.1-2,7.3C149.9,364.1,148.2,366,145.9,367.3L145.9,367.3z M183,372.8v-36.6h-9.3v36.6H183z
		 M241.2,348.7c-2.1-3.8-5.2-6.9-9.3-9.2c-4.1-2.2-9.1-3.4-14.9-3.4h-23.9v50.3H217c5.6,0,10.5-1.2,14.7-3.5
		c4.1-2.3,7.3-5.3,9.5-9.1c2.1-3.8,3.2-8,3.2-12.5C244.4,356.8,243.3,352.5,241.2,348.7z M216.4,339.6c3.9,0,7.3,1,10.1,3
		c2.8,1.9,4.9,4.6,6.4,7.8c1.4,3.3,2.2,7,2.2,11c0,4-0.7,7.7-2.2,11c-1.4,3.3-3.6,5.9-6.4,7.9c-2.8,1.9-6.2,2.9-10.1,2.9h-13.8
		v-43.6H216.4z M260.7,386.5v-50.3h-9.4v50.3H260.7z M296.1,364h12.1v15.5c-3.6,2.2-7.6,3.5-11.1,3.5c-10.6,0-19.6-9.9-19.6-21.6
		c0-11.7,9-21.6,19.6-21.6c6.2,0,13.7,4,17.5,9.3l0.4,0.6l2.6-2.1l-0.4-0.5c-5-6.8-13.2-10.8-21.9-10.8c-14.7,0-26.7,11.3-26.7,25.2
		c0,13.9,12,25.2,26.7,25.2c4.9,0,9.7-1.3,13.8-3.7c3.4-2,6.4-4.6,8.5-7.8l0.1-0.2v-14.3h-21.8L296.1,364z M335.2,386.5v-50.3h-9.4
		v50.3H335.2z M340.1,336.2v3.6h20.1v46.8h9.4v-46.8h17.8v-3.6H340.1z M409.7,334.2l-25.2,52.3h3.7l4.9-10.2h25.8l4.7,10.2h10.1
		L409.7,334.2z M417.3,373h-22.6l11.6-24.1L417.3,373z M445.5,383.1v-46.9h-9.4v50.3H475v-3.4H445.5z"/>
	<path class="st0" d="M311.2,245.9c1.1,1.5,1.3,3.3,1.5,5.1c0.4,3.7-0.6,6.9-3.5,9.2c-1.3,1-2.7,1.4-4.3,1.6
		c-1.5,0.2-2.9-0.1-4.3-0.6c-0.7-0.2-0.8-0.1-0.9,0.6c-0.2,5-1.4,9.8-3.5,14.4c-2,4.4-4.9,8.2-8.6,11.3c-6.3,5.4-13.7,8-21.8,8.9
		c-5.3,0.6-10.6,0.2-15.8-0.9c-4.8-0.9-9.3-2.7-13.6-4.9c-2-1-4-2.1-5.6-3.7c2,0.7,3.9,1.4,6,1.7c1.4,0.2,2.8,0.3,4.2,0.3
		c1.8,0.1,3.5,0.1,5.2-0.2c6.8-1.2,12.4-4.5,16.6-10c2.6-3.5,4.4-7.4,4.8-11.8c0.5-4.7-0.4-9.2-2.8-13.2c-1.2-2-2.6-4-4.3-5.8
		c-1.4-1.5-2.7-3.1-4.3-4.5c-4.2-4-8.8-7.5-13.3-11c-4.1-3.2-8.2-6.4-12.1-9.9c-2.3-2.1-4.5-4.4-6.6-6.8c-2.9-3.3-5.3-6.9-7.3-10.8
		c-0.1-0.1-0.2-0.3-0.4-0.6c-0.1,0.6-0.2,1.2-0.4,1.8c-0.3,1.4-0.6,2.7-0.5,4c0,0.4,0,0.9,0,1.3c0,0.6,0,1.1,0,1.7
		c0.4,4.6,2.2,8.5,5,12.2c3,4,6.7,6.9,11,9.3c2.1,1.2,4.4,2.2,6.7,2.9c2.3,0.7,4.6,1.5,7.1,1.6c-1.4,2-5.5,3.9-13.6,4.4
		c0.1,0.8,0.7,1.3,1,1.9c3.5,6.2,5.1,12.7,1.8,19.6c-1.4,3.1-3.8,5.4-6.6,7.3c-3,2.1-6.4,3-9.9,3.6c-3.9,0.6-7.7,0-11.4-1.3
		c-1.5-0.5-2.9-1.3-4.3-2.1c-2.6-1.5-4.7-3.6-6.5-6c-2.7-3.5-4.3-7.6-5.4-12.3c1.9,2.6,4.3,3.8,7,4.1c2.5,0.3,4.9,0.1,7.1-1
		c2.9-1.4,4.8-4.5,3.6-8.6c-0.9-3-2.3-5.7-3.7-8.5c-2.2-4.5-4.5-8.9-6.2-13.6c-1.3-3.5-2.5-7-3.3-10.7c-0.8-3.3-1.3-6.7-1.3-10
		c0-5.3,1.1-10.4,4.2-14.9c1-1.5,2.2-2.8,3.5-4c0.8-0.7,0.5-0.9-0.2-1.3c-1.6-0.9-2.8-2.3-4.2-3.4c-0.6-0.4-1.1-1.7-1.6-2.6
		c-1.1-1.9-1.7-4.1-2.4-6.2c-0.1-0.4-0.1-0.9,0-1.4c0-0.3,0.1-0.7,0.1-1c-0.2-5.3,1.9-9.7,5.5-13.4c0,0,0,0,0.1-0.1
		c0.1-0.2,0.3-0.3,0.6-0.2c0.2,2.1,0.7,4,2,5.8c2.4,3.2,8,3.5,10.6,0.4c0.6-0.7,1.3-1.3,1.7-2.1c1.8-3.5,2.2-7.2,1.8-11
		c-0.1-1.2-0.3-2.4-0.4-3.5c19.9-5.6,39.9-6,60-1.3c0-0.1,0-0.2,0-0.4c-1.8-0.6-3.7-1.3-5.5-1.9c-3-0.9-6-1.7-9.1-2.2
		c-6.2-1.1-12.5-1.4-18.9-1.1c-3.1,0.1-6.1,0.3-9.1,0.8c-1.8,0.3-3.7,0.6-5.5,0.8c-2.5,0.3-5,0.8-7.5,1.2c-1,0.2-2.1,0.3-3.1,0.8
		c-1.3,0.7-2.4,0-2.9-1.5c-0.9-2.3-1.9-4.5-2.7-6.8c-0.9-2.7-2-5.3-2.9-8c-1.3-3.5-2.6-7-3.9-10.4c-0.3-0.8-0.1-1,0.6-0.8
		c3.9,0.7,7.2,2.3,9.9,5.2c0.4,0.4,0.4,0.9,0.3,1.4c-0.4,2-0.5,4.1-0.2,6.2c0.4,2.2,1.7,3.9,3.5,5.2c2.2,1.5,4.7,2.1,7.2,2.4
		c3.3,0.4,6.6,0.2,9.8-0.6c2-0.5,4.1-1.1,6-2.2c1.6-0.9,3.2-1.6,4.5-2.9c1.3-1.2,2.2-2.6,2.4-4.5c0.2-2.8-1.2-4.7-3.4-6.2
		c-0.1-0.1-0.2-0.1-0.2-0.2c-1.4-1-1.4-1-0.4-2.5c0.9-1.5,2-2.9,3.2-4.2c0.6-0.6,1.1-1.2,1.8-1.7l0.1-0.1c1.9-1.4,1.9-1.4,3.7,0.4
		c0.7,0.7,1.8,1.3,2.3,2.1c1.1,1.6,2.5,3.1,3.2,5c0.2,0.5-0.2,0.6-0.5,0.7c-0.1,0-0.2,0.1-0.2,0.1c-1.9,0.9-3.3,2.2-3.8,4.3
		c-0.3,1.6,0.1,3.1,0.6,4.6c1,2.7,2.9,4.8,5.3,6.2c0.8,0.5,1.4,1.2,2.3,1.5c1,0.4,2,0.9,3.1,1.3c1.1,0.4,2.2,0.6,3.3,0.9
		c1.1,0.2,2.2,0.5,3.3,0.6c4.3,0.2,8.4-0.2,12.1-2.9c3.2-2.3,5.6-7.1,3.5-11.3c-0.3-0.6,0-0.7,0.3-0.9c0.1,0,0.2-0.1,0.3-0.2
		c1.6-1.2,3.4-2.2,5.3-3c1.8-0.7,3.7-1.2,5.7-1.3c0.8,0,0.9,0.1,0.5,0.9c-2.8,4.7-5.5,9.5-8.3,14.2c-1.8,3.1-3.6,6.2-5.6,9.2
		c-1,1.4-1.6,3-1.7,4.7c-0.3,2.6,0.9,4.7,3.1,5.8c1.4,0.7,3.5,0.1,4.6-1.3c0.6-0.9,1.2-1.8,1.9-3c0.5,1.7,0.5,3.2,0.4,4.7
		c-0.1,1.7-0.5,3.2-1.7,4.5c-1.2,1.3-2.7,2-4.4,2.2c0,0.6,0.4,0.7,0.7,0.9c2.3,1.6,2.9,3.8,2.4,6.4c-0.1,0.5-0.2,1,0.4,1.1
		c1.2,0.3,2.2,1.2,3.3,1.7c0.5,0.2,1,0.5,4.8,3.3c1.8,1.3,2,1.4,4.8,3.5c2.4,1.8,4.5,3.9,6.8,5.8c1.1,0.9,1.2,2.1,0.8,3.3
		c-0.2,0.6-0.4,1.2-0.7,1.8c-0.6,1.6-1.2,3.2-1,4.9c0.2,1.2,0.1,2.6,0,3.7c-0.3,2.2,0,4.3-0.6,6.4c0,0.2,0,0.4-0.1,0.5
		c-2,2.9-1.7,6.3-2,9.5c-0.7,5.6-3.9,9.3-8.8,12.1c0.4-1.2,0.8-2.2,1.1-3.1c0,0,0,0,0-0.1c0.1-0.3,0.2-0.6,0-0.9
		c-0.2-0.2-0.4,0-0.6,0.1c-0.1,0-0.1,0.1-0.2,0.1c-1,0.4-2.1,0.9-3,0.8c-1.1,0-2.4-0.1-3.6-0.5c-0.1,0-0.2,0-0.3,0
		c-0.1,0-0.2,0-0.3,0c0.7,1.2,1.3,2.2,1.9,3.2c2.1,3.5,3.7,7.1,5.4,10.8c1.6,3.4,3.1,6.9,5,10.2c0.3,0.5,0.6,1,1,1.4
		c2,2.2,5,1.3,6.1-1.1C311,247,311.2,246.5,311.2,245.9L311.2,245.9z M240.6,158.6c-0.2-0.4-0.3-0.5-0.4-0.6c-1.8-1.9-3.9-3-6.5-3.3
		c-3.1-0.4-5.8,0.4-8.1,2.4c-1.3,1.1-1.9,2.6-2.4,4.3c-0.7,2.6-0.5,5,0.5,7.4c0.9,2.1,2.7,3.4,4.6,4.4c1.2,0.6,2.5,1.1,3.8,1.4
		c0,0,0.1,0,0.1,0c0.3,0.1,0.7,0.2,0.6,0.8c-0.2,1.2-0.3,2.4-0.5,3.5c-0.6,2.8-0.5,5.7-0.2,8.4c0.8,7.2,4.5,12.9,9.9,17.5
		c5.1,4.3,10.6,8.1,15.9,12.1c2.9,2.2,5.8,4.5,8.7,6.7c2.1,1.6,4.2,3.2,6.1,5c2,1.8,3.9,3.8,5.8,5.8c1.1,1.1,2,2.4,3.1,3.5
		c0.7,0.7,1.3,1.9,2,2.8c5.5,7.9,8.5,16.6,7.9,26.4c-0.1,2.2-0.3,4.4-0.7,6.6c0.7-1.2,1-2.5,1.4-3.8c2.3-7,3.5-14.1,3.1-21.5
		c-0.3-4.9-1.6-9.6-3.6-14c-2.7-6.1-7-11-11.7-15.5c-4.1-3.9-8.7-7-13.4-10c-3-2-6-3.9-8.9-5.9c-1.1-0.7-2.1-1.5-3.1-2.4
		c-1-0.8-2.1-1.6-3-2.6c-0.8-0.8-1.7-1.6-2.3-2.6c-2.4-3.7-3.2-7.6-2.1-11.9c1-3.8,3.1-7,6.3-9.3c1.6-1.1,3.3-1.6,5-2.2
		c0.3-0.1,0.6,0,0.8,0.2c-0.8,1.1-1.5,2.3-2.4,3.2c-2.1,2.3-2.8,6.5-1.6,9.3c0.7,1.7,2,2.8,3.2,4.1c1.4,1.5,3.3,2.5,5,3.5
		c3.7,2.2,7.5,4.1,11.3,6.2c1.3,0.7,2.6,1.2,4,0.9c1.4-0.4,2.7-1.1,4.2-1.3c0.2,0,0.5-0.1,0.7-0.1c0.7-0.1,1.3-0.2,2-0.1
		c-1.2,0.6-2.2,1.5-3.2,2.3c-3,2.4-3.9,7.2-2.2,10.3c1.5,2.7,3.9,4.2,6.5,5.4c0.1,0.1,0.2,0.1,0.4,0.2c2,0.9,4.1,1.9,6.5,1.5
		c0.6,0.6,1.3,0.6,2,0.6c0.4,0,0.8,0,1.2,0.1c0.8,0.2,1.7,0,2.5-0.4c1.2-0.5,2.2-1.4,3.2-2.2c0.2,0.4,0.2,0.7,0.2,1.1
		c0,0.2,0,0.3,0,0.5c0.1,0.5,0.1,0.9,0.4,1.4c1.4-2.7,1.8-5.4,0.9-7.6c0-0.1,0-0.3,0.1-0.3c0.5-0.2,0.4-0.6,0.3-0.9
		c0-0.1,0-0.1,0-0.2c-0.3-1.5-0.6-3-1-4.4c-0.3-1.2-0.9-1.4-1.9-0.7c-2.3,1.5-4.7,2.9-7.3,4c-2.4,1-4.7,2.1-7.2,2.7
		c-2.3,0.6-3.9-0.3-4.4-2.5c-0.5-2.2,1-4.5,3.1-4.5c3.5-0.1,7,0,10.4-0.2c2-0.1,3.8-0.8,5.5-2.1c1.5-1.2,2.2-2.7,2.4-4.4
		c0.1-0.4,0.1-0.7,0.2-1.1c0.2-1.1,0.4-2.2,0.3-3.3c-0.1-0.9-0.6-1.5-1.3-1.6c-0.7-0.1-1.2-0.4-1.8-0.6c-0.7-0.2-1.4-0.5-2.1-0.7
		c-1-0.4-1.1-1.1-0.7-1.9c0.6-1.3,1.7-2.2,2.9-3.1c0.4-0.3,0.9-0.6,1.4-0.6c0.7,0.1,1.3,0,2,0c0.8-0.1,1.7-0.1,2.5,0.1
		c0.3,0.1,0.7,0.1,0.9-0.3c-8.3-7.2-17.9-12.2-28-17.2c0.9-0.1,1.5-0.1,2-0.1c1.5-0.1,2.1-1.1,1.2-2.4c-0.8-1.2-1.9-2-3.1-2.7
		c-2.6-1.8-5.7-2.5-8.8-3c-1.8-0.3-3.5-0.4-5.5-0.4c1.7,1.6,3.1,3.1,3.7,5.5c-7.1-4.3-14.5-5-22.2-3.3c4.6,0.2,8.9,0.9,12.1,5
		c-5,0-9.3,1-13,4.1c-1.6,1.4-3.1,2.8-4.2,4.7c-1.7,2.9-2.6,6-2.9,9.3c-0.3,3.1,0.3,6.2,1,9.2c0.2,0.8,0.6,1.5,0.7,2.6
		c-0.6-0.7-1-1.2-1.4-1.8c-2.2-3.6-3.1-7.5-2.8-11.7c0.3-4.1,1.2-8,3.5-11.4c0-0.1,0.1-0.1,0.1-0.2c0.2-0.2,0.3-0.4,0.2-0.6
		c-0.2-0.3-0.5-0.2-0.7-0.2c-0.1,0-0.1,0-0.2,0c-1.7,0.4-3.4,0.3-5.2,0.2l0,0c-2.4-0.1-4.5-1-5.9-2.9c-1.1-1.5-1.5-3.2-1-5
		c1-3.2,4.3-4.5,7-4.5C237.2,157.6,238.8,157.9,240.6,158.6L240.6,158.6z M287.2,180.7c-2.2-0.7-3.9-1.7-5.7-2.2
		c-1.3-0.3-2.5-0.3-3.7,0.3c-1.3,0.6-2.7,0.4-4.1-0.1c-0.2-0.1-0.4-0.1-0.5-0.2c-1.1-0.4-2.2-0.8-3.7-0.7c2.4-2.7,5-4.8,8.3-5.8
		l0.1,0c1.9-0.6,1.9-0.6,2.9,1.3c0.5,1,0.9,2,1,3.1c0.1,1,1.2,1.1,1.7,1.7C284.5,179,285.8,179.7,287.2,180.7L287.2,180.7z
		 M279,174.7c0-0.2,0-0.3,0-0.5c0-0.3,0-0.6-0.3-0.7c-0.4,0-0.5,0.4-0.6,0.7c0,0.1,0,0.1,0,0.2c-0.5,1.7-1.2,1.9-2.6,0.8
		c-0.4-0.3-0.7-0.1-0.9,0.1c-0.1,0.1-0.2,0.1-0.2,0.2c-0.5,0.3-0.2,0.7,0.1,0.9c0.6,0.5,1.2,0.6,2,0.5
		C277.9,176.9,279.1,176.1,279,174.7L279,174.7z M199.5,187.1c-0.2,0.9-0.9,1.1-1.3,1.5c-1.3,1.4-2.6,2.9-3.7,4.6
		c-1.8,2.5-2.7,5.2-3.1,8.1c-0.5,2.8-0.5,5.7-0.1,8.6c0.7,5,1.8,8.8,3,12.2c0.2,0.5,1,2.8,2.2,5.7c0.8,1.9,1.5,3.3,2.2,4.6
		c2.4,4.9,3.6,7.3,4.1,8.2c0.3,0.5,1,1.8,0.9,1.9c-0.1,0-0.3-0.1-0.4-0.2c-3.2-2.8-5.1-6.5-5.1-6.5c-2.2-3.1-4.1-6.5-5.8-9.8
		c-0.9-1.6-1.4-3.3-2.1-4.9c-0.8-1.8-1.3-3.7-1.8-5.6c-0.7-2.9-1.6-6.8-0.9-11.7c0.2-1.3,0.4-2.9,1.2-5c2.2-5.7,6.5-8.8,7.8-9.8
		C197.3,188.3,198.3,187.8,199.5,187.1L199.5,187.1z M232.2,238.4c-0.8-0.2-1.6-0.4-2.4-0.7c-4.8-1.5-9-3.8-12-7.9
		c-0.9-1.1-1.7-2.3-2.3-3.5c-2.9-5.5-3.9-11.4-3.9-17.5c0-0.1,0-0.3,0-0.4c0-0.4,0-0.9-0.2-1.3c-0.6,2-0.7,4-0.9,6
		c-0.4,3.2-0.2,6.5,0.5,9.7c0.6,2.8,1.6,5.4,2.9,7.9c1,2.1,2.1,4.2,3.3,6.2c0.9,1.5,2.1,3,3,4.5c1.2,1.8,2.3,3.7,3.2,5.8
		c1.6,3.6,2.9,7.1,2.7,11.2c-0.2,4.5-2.2,7.9-6.1,10.1c-0.9,0.5-1.8,0.9-2.7,1.3c2.9-0.1,5.5-1.1,7.8-2.8c3.4-2.6,4.8-6.2,5-10.3
		c0.2-4.5-1.2-8.6-3.4-12.4c-1-1.8-2.3-3.4-3.7-5C227.9,240.1,230.1,239.4,232.2,238.4z M271.8,286c2.4-1.6,4-3.8,5.7-6.1
		c2.2-3.1,3.4-6.6,4.1-10.3c0.2-0.9,0.3-1.8,0.4-2.6c0-0.3,0-0.6,0-0.9c0-0.4-0.1-0.9,0-1.3c0.2-0.9,0.1-1.9,0-2.8
		c0-0.1,0-0.2,0-0.3c-0.1-0.9-0.2-1.9-0.4-2.8c-0.3-2.2-0.9-4.3-1.6-6.3c-1.4-4.1-3.5-7.9-6.2-11.4c-2.2-2.9-4.7-5.5-7.4-7.9
		c-3.4-3.1-7.1-5.8-10.8-8.5c-4.6-3.3-9.3-6.4-13.8-9.8c-1.5-1.2-3.1-2.4-4.6-3.6c-1.3-1.1-2.6-2.2-4.2-3.5c1.1,2.6,2.8,4.4,4.4,6.2
		c2.2,2.4,4.6,4.7,7.1,6.8c3.7,3.1,7.2,6.4,11,9.5c2.1,1.7,4,3.6,5.9,5.6c1.8,1.8,3.6,3.6,5.2,5.5c4.3,5.1,7.8,10.6,9.8,17.1
		c0.9,2.7,1.7,5.5,1.7,8.3c0,0.2,0,0.4,0,0.6c0,2.1,0.1,4.3-0.5,6.4c-0.6,2.2-1.1,4.3-2.1,6.3C274.4,282.2,273.3,284.2,271.8,286
		L271.8,286z M228.5,281.9c0.8,0,1.5,0,2.3,0c1.4,0,2.9,0.1,4.3,0c8.4-0.7,15.8-3.4,21.1-10.5c0.8-1.1,1.9-2.8,2.6-5.3
		c0.7-2.5,0.5-4.7,0.3-8.8c0-0.6,0-1.1-0.2-1.6c-1.2-3.9-3.1-7.3-5.7-10.3c-0.1-0.1-0.2-0.2-0.3-0.4c-0.3-0.4-0.6-0.8-0.9-1.3
		c2.6,1.9,4.7,4.1,6.6,6.6c2.4,3.1,4.2,6.6,4.8,10.3c0.8,5-0.1,9.8-2.9,14.2c-3.9,5.9-9.4,9.2-16.3,10.2c-1.9,0.3-3.8,0.2-5.7,0l0,0
		C234.8,284.8,231.6,283.5,228.5,281.9L228.5,281.9z M200.4,263.9c4.4,4.8,11.9,5.7,16.8,1.3c4.3-3.8,4.6-10.4,1.3-15
		c0.5,1.3,0.6,2.6,0.8,3.9c0.2,2-0.1,3.9-1,5.7c-2.3,4.6-7.7,6.3-12.6,5.6C203.9,265,202.1,264.4,200.4,263.9L200.4,263.9z"/>
</g>
</svg>
